<?xml version="1.0" encoding="utf-8"?>
<!-- Generator: Adobe Illustrator 25.2.1, SVG Export Plug-In . SVG Version: 6.00 Build 0)  -->
<svg version="1.1" id="Layer_1" xmlns="http://www.w3.org/2000/svg" xmlns:xlink="http://www.w3.org/1999/xlink" x="0px" y="0px"
	 viewBox="0 0 400 400" style="enable-background:new 0 0 400 400;" xml:space="preserve">
<style type="text/css">
	.st0{opacity:0.84;}
	.st1{opacity:0.6;}
	.st2{fill:url(#SVGID_1_);}
	.st3{fill:url(#SVGID_2_);}
	.st4{opacity:0.28;fill:url(#SVGID_3_);}
	.st5{opacity:0.43;fill:url(#XMLID_2_);}
	.st6{opacity:0.61;fill:url(#XMLID_3_);}
	.st7{opacity:0.61;fill:url(#XMLID_4_);}
	.st8{opacity:0.3;fill:url(#XMLID_5_);}
	.st9{opacity:0.41;fill:url(#XMLID_6_);}
	.st10{opacity:0.48;fill:url(#XMLID_7_);}
	.st11{opacity:0.43;fill:url(#XMLID_8_);}
	.st12{opacity:0.61;fill:url(#XMLID_9_);}
	.st13{opacity:0.61;fill:url(#XMLID_10_);}
	.st14{opacity:0.3;fill:url(#XMLID_11_);}
	.st15{opacity:0.41;fill:url(#XMLID_12_);}
	.st16{opacity:0.48;fill:url(#XMLID_13_);}
	.st17{opacity:0.43;fill:url(#XMLID_14_);}
	.st18{opacity:0.61;fill:url(#XMLID_15_);}
	.st19{opacity:0.61;fill:url(#XMLID_16_);}
	.st20{opacity:0.3;fill:url(#XMLID_17_);}
	.st21{opacity:0.41;fill:url(#XMLID_18_);}
	.st22{opacity:0.48;fill:url(#XMLID_19_);}
	.st23{opacity:0.43;fill:url(#XMLID_20_);}
	.st24{opacity:0.61;fill:url(#XMLID_21_);}
	.st25{opacity:0.61;fill:url(#XMLID_22_);}
	.st26{opacity:0.3;fill:url(#XMLID_23_);}
	.st27{opacity:0.41;fill:url(#XMLID_24_);}
	.st28{opacity:0.48;fill:url(#XMLID_25_);}
	.st29{opacity:0.43;fill:url(#XMLID_26_);}
	.st30{opacity:0.58;fill:url(#XMLID_27_);}
	.st31{opacity:0.58;fill:url(#XMLID_28_);}
	.st32{opacity:0.4;fill:url(#XMLID_29_);}
	.st33{opacity:0.24;fill:url(#XMLID_30_);}
	.st34{opacity:0.43;fill:url(#XMLID_31_);}
	.st35{opacity:0.58;fill:url(#XMLID_32_);}
	.st36{opacity:0.58;fill:url(#XMLID_33_);}
	.st37{opacity:0.4;fill:url(#XMLID_34_);}
	.st38{opacity:0.24;fill:url(#XMLID_35_);}
	.st39{opacity:0.43;fill:url(#XMLID_36_);}
	.st40{opacity:0.43;fill:url(#XMLID_37_);}
	.st41{opacity:0.58;fill:url(#XMLID_38_);}
	.st42{opacity:0.58;fill:url(#XMLID_39_);}
	.st43{opacity:0.4;fill:url(#XMLID_40_);}
	.st44{opacity:0.24;fill:url(#XMLID_41_);}
	.st45{opacity:0.43;fill:url(#XMLID_42_);}
	.st46{opacity:0.43;fill:url(#XMLID_43_);}
	.st47{opacity:0.58;fill:url(#XMLID_44_);}
	.st48{opacity:0.58;fill:url(#XMLID_45_);}
	.st49{opacity:0.4;fill:url(#XMLID_46_);}
	.st50{opacity:0.24;fill:url(#XMLID_47_);}
	.st51{opacity:0.43;fill:url(#XMLID_48_);}
	.st52{opacity:0.43;fill:url(#XMLID_49_);}
	.st53{opacity:0.58;fill:url(#XMLID_50_);}
	.st54{opacity:0.58;fill:url(#XMLID_51_);}
	.st55{opacity:0.4;fill:url(#XMLID_52_);}
	.st56{opacity:0.24;fill:url(#XMLID_53_);}
	.st57{opacity:0.43;fill:url(#XMLID_54_);}
	.st58{opacity:0.43;fill:url(#XMLID_55_);}
	.st59{opacity:0.58;fill:url(#XMLID_56_);}
	.st60{opacity:0.58;fill:url(#XMLID_57_);}
	.st61{opacity:0.44;fill:url(#XMLID_58_);}
	.st62{opacity:0.43;fill:url(#XMLID_59_);}
	.st63{opacity:0.43;fill:url(#XMLID_60_);}
	.st64{opacity:0.58;fill:url(#XMLID_61_);}
	.st65{opacity:0.58;fill:url(#XMLID_62_);}
	.st66{opacity:0.44;fill:url(#XMLID_63_);}
	.st67{opacity:0.43;fill:url(#XMLID_64_);}
	.st68{opacity:0.43;fill:url(#XMLID_65_);}
	.st69{opacity:0.61;fill:url(#XMLID_66_);}
	.st70{opacity:0.61;fill:url(#XMLID_67_);}
	.st71{opacity:0.61;fill:url(#XMLID_68_);}
	.st72{opacity:0.61;fill:url(#XMLID_69_);}
	.st73{opacity:0.43;fill:url(#XMLID_70_);}
	.st74{opacity:0.43;fill:url(#XMLID_71_);}
	.st75{opacity:0.61;fill:url(#XMLID_72_);}
	.st76{opacity:0.61;fill:url(#XMLID_73_);}
	.st77{opacity:0.61;fill:url(#XMLID_74_);}
	.st78{opacity:0.43;fill:url(#XMLID_75_);}
	.st79{opacity:0.43;fill:url(#XMLID_76_);}
	.st80{opacity:0.61;fill:url(#XMLID_77_);}
	.st81{opacity:0.61;fill:url(#XMLID_78_);}
	.st82{opacity:0.61;fill:url(#XMLID_79_);}
	.st83{opacity:0.43;fill:url(#XMLID_80_);}
	.st84{opacity:0.43;fill:url(#XMLID_81_);}
	.st85{opacity:0.61;fill:url(#XMLID_82_);}
	.st86{opacity:0.61;fill:url(#XMLID_83_);}
	.st87{opacity:0.61;fill:url(#XMLID_84_);}
	.st88{opacity:0.43;fill:url(#XMLID_85_);}
	.st89{opacity:0.43;fill:url(#XMLID_86_);}
	.st90{opacity:0.61;fill:url(#XMLID_87_);}
	.st91{opacity:0.61;fill:url(#XMLID_88_);}
	.st92{opacity:0.61;fill:url(#XMLID_89_);}
	.st93{opacity:0.43;fill:url(#XMLID_90_);}
	.st94{opacity:0.43;fill:url(#XMLID_91_);}
	.st95{opacity:0.61;fill:url(#XMLID_92_);}
	.st96{opacity:0.61;fill:url(#XMLID_93_);}
	.st97{opacity:0.61;fill:url(#XMLID_94_);}
	.st98{opacity:0.43;fill:url(#XMLID_95_);}
	.st99{opacity:0.43;fill:url(#XMLID_96_);}
	.st100{opacity:0.61;fill:url(#XMLID_97_);}
	.st101{opacity:0.61;fill:url(#XMLID_98_);}
	.st102{opacity:0.58;fill:url(#XMLID_99_);}
	.st103{opacity:0.58;fill:url(#XMLID_100_);}
	.st104{opacity:0.43;fill:url(#XMLID_101_);}
	.st105{opacity:0.43;fill:url(#XMLID_102_);}
	.st106{opacity:0.61;fill:url(#XMLID_103_);}
	.st107{opacity:0.61;fill:url(#XMLID_104_);}
	.st108{opacity:0.58;fill:url(#XMLID_105_);}
	.st109{opacity:0.58;fill:url(#XMLID_106_);}
	.st110{opacity:0.43;fill:url(#XMLID_107_);}
	.st111{opacity:0.43;fill:url(#XMLID_108_);}
	.st112{opacity:0.61;fill:url(#XMLID_109_);}
	.st113{opacity:0.61;fill:url(#XMLID_110_);}
	.st114{opacity:0.58;fill:url(#XMLID_111_);}
	.st115{opacity:0.58;fill:url(#XMLID_112_);}
	.st116{opacity:0.43;fill:url(#XMLID_113_);}
	.st117{opacity:0.43;fill:url(#XMLID_114_);}
	.st118{opacity:0.61;fill:url(#XMLID_115_);}
	.st119{opacity:0.61;fill:url(#XMLID_116_);}
	.st120{opacity:0.58;fill:url(#XMLID_117_);}
	.st121{opacity:0.58;fill:url(#XMLID_118_);}
	.st122{opacity:0.43;fill:url(#XMLID_119_);}
	.st123{opacity:0.43;fill:url(#XMLID_120_);}
	.st124{opacity:0.61;fill:url(#XMLID_121_);}
	.st125{opacity:0.61;fill:url(#XMLID_122_);}
	.st126{opacity:0.58;fill:url(#XMLID_123_);}
	.st127{opacity:0.58;fill:url(#XMLID_124_);}
	.st128{opacity:0.43;fill:url(#XMLID_125_);}
	.st129{opacity:0.43;fill:url(#XMLID_126_);}
	.st130{opacity:0.61;fill:url(#XMLID_127_);}
	.st131{opacity:0.61;fill:url(#XMLID_128_);}
	.st132{opacity:0.61;fill:url(#XMLID_129_);}
	.st133{opacity:0.61;fill:url(#XMLID_130_);}
	.st134{opacity:0.61;fill:url(#XMLID_131_);}
	.st135{opacity:0.43;fill:url(#XMLID_132_);}
	.st136{opacity:0.43;fill:url(#XMLID_133_);}
	.st137{opacity:0.61;fill:url(#XMLID_134_);}
	.st138{opacity:0.61;fill:url(#XMLID_135_);}
	.st139{opacity:0.36;fill:url(#XMLID_136_);}
	.st140{opacity:0.36;fill:url(#XMLID_137_);}
	.st141{opacity:0.43;fill:url(#XMLID_138_);}
	.st142{opacity:0.58;fill:url(#XMLID_139_);}
	.st143{opacity:0.58;fill:url(#XMLID_140_);}
	.st144{opacity:0.4;fill:url(#XMLID_141_);}
	.st145{opacity:0.24;fill:url(#XMLID_142_);}
	.st146{clip-path:url(#XMLID_143_);fill:url(#XMLID_144_);}
	.st147{opacity:0.43;fill:url(#XMLID_145_);}
	.st148{opacity:0.43;fill:url(#XMLID_146_);}
	.st149{opacity:0.61;fill:url(#XMLID_147_);}
	.st150{opacity:0.61;fill:url(#XMLID_148_);}
	.st151{opacity:0.61;fill:url(#XMLID_149_);}
	.st152{clip-path:url(#XMLID_150_);fill:url(#XMLID_151_);}
	.st153{opacity:0.43;fill:url(#XMLID_152_);}
	.st154{opacity:0.43;fill:url(#XMLID_153_);}
	.st155{opacity:0.58;fill:url(#XMLID_154_);}
	.st156{opacity:0.61;fill:url(#XMLID_155_);}
	.st157{opacity:0.17;fill:url(#XMLID_156_);}
	.st158{opacity:0.34;fill:url(#XMLID_157_);}
	.st159{clip-path:url(#XMLID_158_);fill:url(#XMLID_159_);}
	.st160{opacity:0.43;fill:url(#XMLID_160_);}
	.st161{opacity:0.43;fill:url(#XMLID_161_);}
	.st162{opacity:0.61;fill:url(#XMLID_162_);}
	.st163{opacity:0.61;fill:url(#XMLID_163_);}
	.st164{opacity:0.61;fill:url(#XMLID_164_);}
	.st165{opacity:0.61;fill:url(#XMLID_165_);}
	.st166{clip-path:url(#XMLID_166_);fill:url(#XMLID_167_);}
	.st167{opacity:0.43;fill:url(#XMLID_168_);}
	.st168{opacity:0.58;fill:url(#XMLID_169_);}
	.st169{opacity:0.58;fill:url(#XMLID_170_);}
	.st170{opacity:0.4;fill:url(#XMLID_171_);}
	.st171{opacity:0.24;fill:url(#XMLID_172_);}
	.st172{clip-path:url(#XMLID_173_);fill:url(#XMLID_174_);}
	.st173{fill:url(#SVGID_4_);}
	.st174{fill:#EE484C;}
	.st175{fill:url(#SVGID_5_);}
	.st176{clip-path:url(#SVGID_7_);}
	.st177{fill:#FFFFFF;}
</style>
<g>
	<g>
		<radialGradient id="SVGID_1_" cx="130.683" cy="136.229" r="275.4832" gradientUnits="userSpaceOnUse">
			<stop  offset="0.1514" style="stop-color:#FA232B"/>
			<stop  offset="0.3111" style="stop-color:#F6222A"/>
			<stop  offset="0.4737" style="stop-color:#EA1E26"/>
			<stop  offset="0.6377" style="stop-color:#D51720"/>
			<stop  offset="0.8027" style="stop-color:#B90E18"/>
			<stop  offset="0.9669" style="stop-color:#94030D"/>
			<stop  offset="1" style="stop-color:#8C000B"/>
		</radialGradient>
		<path class="st2" d="M376.2,200c0,97.3-78.9,176.2-176.2,176.2c-97.3,0-176.2-78.9-176.2-176.2c0-97.3,78.9-176.2,176.2-176.2
			C297.3,23.8,376.2,102.7,376.2,200z"/>
		<path class="st174" d="M326.2,120.6c0-17.1-2-33.8-5.8-49.8c-10.5-18.1-22.3-26-46.1-30.3c4.4,17.1,0.8,31.7,0.8,50.2
			c0,118.6-95,217.9-213.6,217.9c-0.4,0,6.3,17.4,24.5,25.1c8.4,1,16.9,1.5,25.5,1.5C230.1,335.3,326.2,239.1,326.2,120.6z"/>
		<radialGradient id="SVGID_2_" cx="193.8457" cy="187.9056" r="228.2695" gradientUnits="userSpaceOnUse">
			<stop  offset="0.1514" style="stop-color:#FA232B"/>
			<stop  offset="0.3111" style="stop-color:#F6222A"/>
			<stop  offset="0.4737" style="stop-color:#EA1E26"/>
			<stop  offset="0.6377" style="stop-color:#D51720"/>
			<stop  offset="0.8027" style="stop-color:#B90E18"/>
			<stop  offset="0.9669" style="stop-color:#94030D"/>
			<stop  offset="1" style="stop-color:#8C000B"/>
		</radialGradient>
		<path class="st3" d="M326.2,120.6c0-17.1-2-33.8-5.8-49.8c-10.5-18.1-22.3-26-46.1-30.3c4.4,17.1,0.8,31.7,0.8,50.2
			c0,118.6-95,217.9-213.6,217.9c-0.4,0,6.3,17.4,24.5,25.1c8.4,1,16.9,1.5,25.5,1.5C230.1,335.3,326.2,239.1,326.2,120.6z"/>
		<g>
			<defs>
				<path id="SVGID_6_" d="M320.5,71.5c-0.1-0.2-0.1-0.5-0.2-0.7c-10.3-17.8-21.9-25.8-44.9-30C252.6,29.9,227,23.8,200,23.8
					c-97.3,0-176.2,78.9-176.2,176.2c0,41.1,14.1,79,37.7,109c0.7,2.3,7.3,16.9,23,24.2c30.9,26.8,71.3,43,115.4,43
					c97.3,0,176.2-78.9,176.2-176.2C376.2,149.3,354.8,103.7,320.5,71.5z"/>
			</defs>
			<clipPath id="SVGID_3_">
				<use xlink:href="#SVGID_6_"  style="overflow:visible;"/>
			</clipPath>
			<g style="clip-path:url(#SVGID_3_);">
				<path d="M68.6,325.5c-3.1,0-6.2-0.1-9.4-0.2l0-1.1c3.1,0.1,6.2,0.2,9.3,0.2c75.5,0,148.7-35,192.8-92.8
					c41.6-54.5,52.6-122.2,31-190.8l1-0.3c21.7,68.9,10.7,137.1-31.1,191.8C218,290.4,144.5,325.5,68.6,325.5z"/>
				<g>
					<path class="st177" d="M214.6,218.5c18.1-22.3,31.3-49.3,39.3-80.3c8.1-31.1,11.1-67.2,9.1-107.4l-3.2,0.2
						c7.8,157.1-62,244.6-213.5,267.6l0.5,3.2c37.8-5.7,70.9-15.5,98.5-29.1C173.4,258.8,196.7,240.6,214.6,218.5z"/>
					<path class="st177" d="M62.5,316.6l0.3,3.2c1.8-0.1,3.6-0.3,5.3-0.5l-0.3-3.2C66,316.3,64.2,316.5,62.5,316.6z"/>
					<path class="st177" d="M199.1,271.1c-2.8,2-5.7,3.9-8.7,5.7l1.7,2.7c3-1.9,5.9-3.8,8.8-5.8L199.1,271.1z"/>
					<path class="st177" d="M287.3,92.8l3.2,0c0-3.5-0.1-7-0.3-10.5l-3.2,0.1C287.1,85.9,287.2,89.4,287.3,92.8z"/>
					<path class="st177" d="M172.3,287c-3.1,1.6-6.2,3.1-9.4,4.5l1.3,2.9c3.2-1.5,6.4-3,9.5-4.6L172.3,287z"/>
					<path class="st177" d="M271.2,190.1l-2.9-1.3c-1.4,3.1-2.9,6.3-4.5,9.3l2.8,1.5C268.3,196.5,269.8,193.3,271.2,190.1z"/>
					<path class="st177" d="M261.4,202.7c-1.7,3-3.4,6-5.2,8.9l2.7,1.7c1.8-3,3.6-6,5.3-9.1L261.4,202.7z"/>
					<path class="st177" d="M185.9,279.5c-2.9,1.7-6,3.5-9,5.1l1.5,2.8c3.1-1.7,6.2-3.4,9.2-5.2L185.9,279.5z"/>
					<path class="st177" d="M159.5,296.5l-1.3-2.9c-3.1,1.4-6.4,2.7-9.6,3.9l1.2,3C153,299.2,156.3,297.9,159.5,296.5z"/>
					<path class="st177" d="M277.1,175.5l-3-1.1c-1.2,3.2-2.4,6.5-3.8,9.7l2.9,1.2C274.7,182.1,276,178.8,277.1,175.5z"/>
					<path class="st177" d="M281.9,160.4l-3.1-0.9c-0.9,3.3-1.9,6.7-3,9.9l3,1C280,167.2,281,163.8,281.9,160.4z"/>
					<path class="st177" d="M290.4,98l-3.2,0c0,3.5-0.1,7-0.3,10.4l3.2,0.2C290.3,105.1,290.4,101.6,290.4,98z"/>
					<path class="st177" d="M133.9,302.7l1,3c3.3-1.1,6.7-2.2,9.9-3.4l-1.1-3C140.5,300.5,137.2,301.7,133.9,302.7z"/>
					<path class="st177" d="M234.3,240.5c-2.3,2.5-4.7,5-7.2,7.5l2.2,2.3c2.5-2.5,5-5,7.3-7.6L234.3,240.5z"/>
					<path class="st177" d="M285.7,123.9l3.2,0.4c0.4-3.4,0.7-7,0.9-10.5l-3.2-0.2C286.4,117,286.1,120.5,285.7,123.9z"/>
					<path class="st177" d="M283.5,139.3l3.1,0.6c0.6-3.4,1.2-6.9,1.6-10.4l-3.2-0.4C284.6,132.5,284.1,136,283.5,139.3z"/>
					<path class="st177" d="M285.3,61.7l3.2-0.4c-0.4-3.4-0.8-6.9-1.3-10.4l-3.2,0.5C284.5,54.8,284.9,58.3,285.3,61.7z"/>
					<path class="st177" d="M88.4,313.5l0.5,3.2c3.5-0.6,6.9-1.2,10.3-1.8l-0.6-3.1C95.3,312.4,91.8,313,88.4,313.5z"/>
					<path class="st177" d="M103.7,310.7l0.7,3.1c3.4-0.7,6.9-1.5,10.2-2.3l-0.8-3.1C110.5,309.2,107.1,310,103.7,310.7z"/>
					<path class="st177" d="M286.7,77.2l3.2-0.2c-0.2-3.5-0.5-7-0.8-10.5l-3.2,0.3C286.2,70.3,286.5,73.8,286.7,77.2z"/>
					<path class="st177" d="M285.6,145.1l-3.1-0.6c-0.7,3.4-1.5,6.8-2.3,10.1l3.1,0.8C284.1,151.9,284.9,148.5,285.6,145.1z"/>
					<path class="st177" d="M83.2,314.3c-3.4,0.5-6.9,0.9-10.3,1.3l0.4,3.2c3.5-0.4,7-0.8,10.4-1.3L83.2,314.3z"/>
					<path class="st177" d="M211.6,261.7c-2.7,2.1-5.5,4.3-8.3,6.3l1.9,2.6c2.9-2.1,5.7-4.2,8.4-6.4L211.6,261.7z"/>
					<path class="st177" d="M256,217.8l-2.7-1.8c-1.9,2.9-3.9,5.7-5.9,8.5l2.6,1.9C252.1,223.6,254.1,220.7,256,217.8z"/>
					<path class="st177" d="M244.3,228.6c-2.1,2.7-4.3,5.4-6.6,8l2.4,2.1c2.3-2.6,4.5-5.4,6.7-8.1L244.3,228.6z"/>
					<path class="st177" d="M118.9,307.1l0.8,3.1c3.4-0.9,6.8-1.9,10.1-2.9l-0.9-3.1C125.6,305.3,122.3,306.2,118.9,307.1z"/>
					<path class="st177" d="M223.3,251.5c-2.5,2.3-5.1,4.7-7.8,6.9l2.1,2.4c2.7-2.3,5.3-4.6,7.9-7L223.3,251.5z"/>
					<path class="st177" d="M286.3,45.6c-0.3-1.7-0.6-3.5-0.9-5.3l-3.1,0.6c0.3,1.7,0.6,3.5,0.9,5.2L286.3,45.6z"/>
					<path class="st177" d="M84.4,328.8c-1.8,0-3.5,0-5.3,0v3.2c1.8,0,3.6,0,5.3,0L84.4,328.8z"/>
					<path class="st177" d="M317.6,127.5l-3.2-0.2c-0.2,3.6-0.5,7.2-0.8,10.7l3.2,0.3C317.2,134.8,317.4,131.1,317.6,127.5z"/>
					<path class="st177" d="M285.1,230.2c2-3,3.9-6.2,5.7-9.3l-2.8-1.6c-1.8,3.1-3.6,6.2-5.6,9.1L285.1,230.2z"/>
					<path class="st177" d="M314.5,105.9l3.2-0.1c-0.1-3.6-0.4-7.2-0.7-10.9l-3.2,0.3C314.2,98.7,314.4,102.3,314.5,105.9z"/>
					<path class="st177" d="M316.2,143.8l-3.2-0.4c-0.4,3.6-1,7.1-1.6,10.6l3.1,0.6C315.2,151,315.7,147.4,316.2,143.8z"/>
					<path class="st177" d="M313.3,89.8l3.2-0.3c-0.4-3.6-0.8-7.2-1.4-10.8l-3.2,0.5C312.5,82.7,313,86.2,313.3,89.8z"/>
					<path class="st177" d="M314.7,115.6c0,2.1,0,4.3-0.1,6.4l3.2,0.1c0.1-2.1,0.1-4.3,0.1-6.5c0-1.5,0-2.9,0-4.4l-3.2,0.1
						C314.7,112.7,314.7,114.1,314.7,115.6z"/>
					<path class="st177" d="M308.1,169.8l3.1,0.8c0.9-3.5,1.7-7.1,2.4-10.6l-3.1-0.6C309.7,162.8,308.9,166.3,308.1,169.8z"/>
					<path class="st177" d="M298.3,206.4l-2.9-1.4c-1.5,3.2-3.1,6.5-4.8,9.6l2.8,1.5C295.1,213,296.8,209.7,298.3,206.4z"/>
					<path class="st177" d="M304.6,191.4l-3-1.1c-1.2,3.3-2.6,6.7-4,10l2.9,1.3C302,198.2,303.4,194.8,304.6,191.4z"/>
					<path class="st177" d="M311.2,73.8l3.1-0.5c-0.6-3.5-1.3-7.1-2-10.7l-3.1,0.6C309.9,66.7,310.6,70.3,311.2,73.8z"/>
					<path class="st177" d="M309.7,175.8l-3.1-0.9c-1,3.4-2.1,6.9-3.2,10.2l3,1C307.6,182.8,308.7,179.3,309.7,175.8z"/>
					<path class="st177" d="M249.7,271.5l-2.1-2.4c-2.7,2.4-5.4,4.7-8.2,7l2,2.5C244.2,276.3,247,273.9,249.7,271.5z"/>
					<path class="st177" d="M261.4,260.1l-2.3-2.2c-2.5,2.6-5,5.1-7.6,7.6l2.2,2.3C256.3,265.3,258.9,262.7,261.4,260.1z"/>
					<path class="st177" d="M209.7,299.8l-1.6-2.8c-3.1,1.7-6.3,3.4-9.5,5l1.4,2.9C203.3,303.3,206.6,301.6,209.7,299.8z"/>
					<path class="st177" d="M195.2,307.3l-1.4-2.9c-3.2,1.5-6.5,3-9.8,4.3l1.2,2.9C188.6,310.3,191.9,308.8,195.2,307.3z"/>
					<path class="st177" d="M223.7,291.4l-1.7-2.7c-3,1.9-6,3.8-9.1,5.7l1.6,2.8C217.6,295.3,220.7,293.4,223.7,291.4z"/>
					<path class="st177" d="M180.2,313.7l-1.2-3c-3.3,1.3-6.7,2.5-10.1,3.7l1,3C173.4,316.3,176.8,315,180.2,313.7z"/>
					<path class="st177" d="M117,329.7l-0.4-3.2c-3.5,0.5-7.1,0.8-10.7,1.2l0.3,3.2C109.8,330.5,113.4,330.1,117,329.7z"/>
					<path class="st177" d="M133.1,327.1l-0.6-3.1c-3.5,0.7-7.1,1.3-10.6,1.8l0.5,3.2C126,328.4,129.6,327.8,133.1,327.1z"/>
					<path class="st177" d="M100.7,331.3l-0.2-3.2c-3.5,0.3-7.2,0.4-10.7,0.6l0.1,3.2C93.5,331.7,97.1,331.5,100.7,331.3z"/>
					<path class="st177" d="M164.8,319.2l-1-3c-3.4,1.1-6.9,2.1-10.3,3l0.8,3.1C157.8,321.3,161.3,320.3,164.8,319.2z"/>
					<path class="st177" d="M272.3,247.8l-2.5-2c-2.2,2.8-4.6,5.5-7,8.1l2.4,2.1C267.6,253.4,270,250.7,272.3,247.8z"/>
					<path class="st177" d="M282.1,234.8l-2.6-1.8c-2,2.9-4.1,5.8-6.3,8.7l2.5,1.9C277.9,240.7,280,237.7,282.1,234.8z"/>
					<path class="st177" d="M149,323.6l-0.8-3.1c-3.4,0.9-7,1.7-10.5,2.4l0.7,3.1C142,325.3,145.6,324.5,149,323.6z"/>
					<path class="st177" d="M228.2,288.4c3-2.1,6-4.2,8.8-6.4l-1.9-2.5c-2.8,2.2-5.7,4.3-8.7,6.3L228.2,288.4z"/>
					<path class="st177" d="M311.1,57.1c-0.4-1.7-0.8-3.5-1.2-5.2l-3.1,0.8c0.4,1.7,0.8,3.4,1.2,5.2L311.1,57.1z"/>
					<path class="st177" d="M229.1,225.7c37.6-46.8,52.3-110.2,43.5-188.6l-3.2,0.4c8.7,77.5-5.7,140.1-42.8,186.2
						c-36.5,45.4-95.5,73.5-170.6,81.3l0.3,3.2c37.5-3.9,71.1-12.7,99.9-26.3C185.8,268,210.3,249.1,229.1,225.7z"/>
					<path class="st177" d="M270.1,271.3c23.9-24.4,41.1-53.2,51.1-85.6c11.1-35.8,13-75,5.7-116.6l-3.1,0.6
						c13.6,77.8-6.2,148.6-56,199.4c-48.4,49.5-121.1,75.1-185.2,65.3l-0.5,3.2c9.2,1.4,18.7,2.1,28.2,2.1
						C167.6,339.6,227.9,314.4,270.1,271.3z"/>
					<path class="st177" d="M334.3,75.5l-3.1,0.5c13.6,77.8-6.2,148.6-56,199.4c-48.4,49.5-121.1,75.1-185.2,65.3l-0.5,3.2
						c9.2,1.4,18.7,2.1,28.2,2.1c57.4,0,117.7-25.2,159.8-68.3c23.9-24.4,41.1-53.2,51.1-85.6C339.7,156.3,341.6,117.1,334.3,75.5z"
						/>
				</g>
			</g>
		</g>
	</g>
</g>
</svg>
