<?xml version="1.0" encoding="utf-8"?>
<!-- Generator: Adobe Illustrator 24.3.0, SVG Export Plug-In . SVG Version: 6.00 Build 0)  -->
<svg version="1.1" id="Layer_1" xmlns="http://www.w3.org/2000/svg" xmlns:xlink="http://www.w3.org/1999/xlink" x="0px" y="0px"
	 viewBox="0 0 3000 3000" style="enable-background:new 0 0 1000 1000;" xml:space="preserve">
<g>
	<path style="fill:none;stroke:#ffffff;stroke-miterlimit:10;" d="M438,828.5L21.3,411.8c0,0,136-343.8,476.7-349.4
		s480.7,344.9,480.7,344.9L557.9,828.5c0,0,35.8,57.1-11.1,93.3c-22.9,17.6-54,20.7-80.2,8.5C439.9,917.9,414.1,890.2,438,828.5z"/>
	<path style="fill:none;stroke:#ffffff;stroke-miterlimit:10;" d="M253.1,506.6l203.3-205.5c0,0,40.5,29.4,79.8,0l207.6,207.7
		c0,0-30,43.6-0.9,88L536.6,806.7c0,0-23-25.3-75.8,0L253.1,588.6C253.1,588.6,283.9,557.9,253.1,506.6z"/>
</g>
</svg>
